# xmcd
#
# Track frame offsets:
#	150
#	17045
#	31667
#	47562
#	65877
#	81460
#	96820
#	111507
#	125692
#	146915
#	161660
#
# Disc length: 2317 seconds
#
# Revision: 8
# Processed by: cddbd v1.5.2PL0 Copyright (c) Steve Scherf et al.
# Submitted via: audiograbber 1.83.01
#
DISCID=9e090b0b
DTITLE=Martina McBride - Wild Angels
DYEAR=1995
DGENRE=Oldies
TTITLE0=Wild Angels
TTITLE1=Safe In The Arms Of Love
TTITLE2=Phones Are Ringin' All Over Town
TTITLE3=A Great Disguise
TTITLE4=Swingin' Doors
TTITLE5=All The Things We've Never Done
TTITLE6=Two More Bottles Of Wine
TTITLE7=Cry On The Shoulder Of The Road
TTITLE8=You've Been Driving All The Time
TTITLE9=Born To Give My Love To You
TTITLE10=Beyond The Blue
EXTD=
EXTT0=
EXTT1=
EXTT2=
EXTT3=
EXTT4=
EXTT5=
EXTT6=
EXTT7=
EXTT8=
EXTT9=
EXTT10=
PLAYORDER=
